<svg width="16" height="16" viewBox="0 0 16 16" fill="none" xmlns="http://www.w3.org/2000/svg">
<mask id="path-1-inside-1_1982_8389" fill="white">
<path d="M8.00016 12.666C8.13202 12.666 8.26091 12.6269 8.37054 12.5537C8.48018 12.4804 8.56562 12.3763 8.61608 12.2545C8.66654 12.1327 8.67974 11.9986 8.65402 11.8693C8.6283 11.74 8.5648 11.6212 8.47157 11.5279C8.37833 11.4347 8.25954 11.3712 8.13022 11.3455C8.0009 11.3198 7.86686 11.333 7.74504 11.3834C7.62322 11.4339 7.5191 11.5193 7.44585 11.629C7.3726 11.7386 7.3335 11.8675 7.3335 11.9993C7.3335 12.1762 7.40373 12.3457 7.52876 12.4708C7.65378 12.5958 7.82335 12.666 8.00016 12.666ZM11.3335 12.666C11.4654 12.666 11.5942 12.6269 11.7039 12.5537C11.8135 12.4804 11.899 12.3763 11.9494 12.2545C11.9999 12.1327 12.0131 11.9986 11.9874 11.8693C11.9616 11.74 11.8981 11.6212 11.8049 11.5279C11.7117 11.4347 11.5929 11.3712 11.4636 11.3455C11.3342 11.3198 11.2002 11.333 11.0784 11.3834C10.9566 11.4339 10.8524 11.5193 10.7792 11.629C10.7059 11.7386 10.6668 11.8675 10.6668 11.9993C10.6668 12.1762 10.7371 12.3457 10.8621 12.4708C10.9871 12.5958 11.1567 12.666 11.3335 12.666ZM11.3335 9.99935C11.4654 9.99935 11.5942 9.96025 11.7039 9.88699C11.8135 9.81374 11.899 9.70962 11.9494 9.5878C11.9999 9.46599 12.0131 9.33194 11.9874 9.20262C11.9616 9.0733 11.8981 8.95451 11.8049 8.86128C11.7117 8.76804 11.5929 8.70455 11.4636 8.67882C11.3342 8.6531 11.2002 8.6663 11.0784 8.71676C10.9566 8.76722 10.8524 8.85267 10.7792 8.9623C10.7059 9.07193 10.6668 9.20083 10.6668 9.33268C10.6668 9.50949 10.7371 9.67906 10.8621 9.80409C10.9871 9.92911 11.1567 9.99935 11.3335 9.99935ZM8.00016 9.99935C8.13202 9.99935 8.26091 9.96025 8.37054 9.88699C8.48018 9.81374 8.56562 9.70962 8.61608 9.5878C8.66654 9.46599 8.67974 9.33194 8.65402 9.20262C8.6283 9.0733 8.5648 8.95451 8.47157 8.86128C8.37833 8.76804 8.25954 8.70455 8.13022 8.67882C8.0009 8.6531 7.86686 8.6663 7.74504 8.71676C7.62322 8.76722 7.5191 8.85267 7.44585 8.9623C7.3726 9.07193 7.3335 9.20083 7.3335 9.33268C7.3335 9.50949 7.40373 9.67906 7.52876 9.80409C7.65378 9.92911 7.82335 9.99935 8.00016 9.99935ZM12.6668 1.99935H12.0002V1.33268C12.0002 1.15587 11.9299 0.986302 11.8049 0.861278C11.6799 0.736253 11.5103 0.666016 11.3335 0.666016C11.1567 0.666016 10.9871 0.736253 10.8621 0.861278C10.7371 0.986302 10.6668 1.15587 10.6668 1.33268V1.99935H5.3335V1.33268C5.3335 1.15587 5.26326 0.986302 5.13823 0.861278C5.01321 0.736253 4.84364 0.666016 4.66683 0.666016C4.49002 0.666016 4.32045 0.736253 4.19543 0.861278C4.0704 0.986302 4.00016 1.15587 4.00016 1.33268V1.99935H3.3335C2.80306 1.99935 2.29436 2.21006 1.91928 2.58514C1.54421 2.96021 1.3335 3.46892 1.3335 3.99935V13.3327C1.3335 13.8631 1.54421 14.3718 1.91928 14.7469C2.29436 15.122 2.80306 15.3327 3.3335 15.3327H12.6668C13.1973 15.3327 13.706 15.122 14.081 14.7469C14.4561 14.3718 14.6668 13.8631 14.6668 13.3327V3.99935C14.6668 3.46892 14.4561 2.96021 14.081 2.58514C13.706 2.21006 13.1973 1.99935 12.6668 1.99935ZM13.3335 13.3327C13.3335 13.5095 13.2633 13.6791 13.1382 13.8041C13.0132 13.9291 12.8436 13.9993 12.6668 13.9993H3.3335C3.15669 13.9993 2.98712 13.9291 2.86209 13.8041C2.73707 13.6791 2.66683 13.5095 2.66683 13.3327V7.33268H13.3335V13.3327ZM13.3335 5.99935H2.66683V3.99935C2.66683 3.82254 2.73707 3.65297 2.86209 3.52794C2.98712 3.40292 3.15669 3.33268 3.3335 3.33268H4.00016V3.99935C4.00016 4.17616 4.0704 4.34573 4.19543 4.47075C4.32045 4.59578 4.49002 4.66602 4.66683 4.66602C4.84364 4.66602 5.01321 4.59578 5.13823 4.47075C5.26326 4.34573 5.3335 4.17616 5.3335 3.99935V3.33268H10.6668V3.99935C10.6668 4.17616 10.7371 4.34573 10.8621 4.47075C10.9871 4.59578 11.1567 4.66602 11.3335 4.66602C11.5103 4.66602 11.6799 4.59578 11.8049 4.47075C11.9299 4.34573 12.0002 4.17616 12.0002 3.99935V3.33268H12.6668C12.8436 3.33268 13.0132 3.40292 13.1382 3.52794C13.2633 3.65297 13.3335 3.82254 13.3335 3.99935V5.99935ZM4.66683 9.99935C4.79868 9.99935 4.92758 9.96025 5.03721 9.88699C5.14684 9.81374 5.23229 9.70962 5.28275 9.5878C5.33321 9.46599 5.34641 9.33194 5.32069 9.20262C5.29496 9.0733 5.23147 8.95451 5.13823 8.86128C5.045 8.76804 4.92621 8.70455 4.79689 8.67882C4.66757 8.6531 4.53352 8.6663 4.41171 8.71676C4.28989 8.76722 4.18577 8.85267 4.11252 8.9623C4.03926 9.07193 4.00016 9.20083 4.00016 9.33268C4.00016 9.50949 4.0704 9.67906 4.19543 9.80409C4.32045 9.92911 4.49002 9.99935 4.66683 9.99935ZM4.66683 12.666C4.79868 12.666 4.92758 12.6269 5.03721 12.5537C5.14684 12.4804 5.23229 12.3763 5.28275 12.2545C5.33321 12.1327 5.34641 11.9986 5.32069 11.8693C5.29496 11.74 5.23147 11.6212 5.13823 11.5279C5.045 11.4347 4.92621 11.3712 4.79689 11.3455C4.66757 11.3198 4.53352 11.333 4.41171 11.3834C4.28989 11.4339 4.18577 11.5193 4.11252 11.629C4.03926 11.7386 4.00016 11.8675 4.00016 11.9993C4.00016 12.1762 4.0704 12.3457 4.19543 12.4708C4.32045 12.5958 4.49002 12.666 4.66683 12.666Z"/>
</mask>
<path d="M8.00016 12.666C8.13202 12.666 8.26091 12.6269 8.37054 12.5537C8.48018 12.4804 8.56562 12.3763 8.61608 12.2545C8.66654 12.1327 8.67974 11.9986 8.65402 11.8693C8.6283 11.74 8.5648 11.6212 8.47157 11.5279C8.37833 11.4347 8.25954 11.3712 8.13022 11.3455C8.0009 11.3198 7.86686 11.333 7.74504 11.3834C7.62322 11.4339 7.5191 11.5193 7.44585 11.629C7.3726 11.7386 7.3335 11.8675 7.3335 11.9993C7.3335 12.1762 7.40373 12.3457 7.52876 12.4708C7.65378 12.5958 7.82335 12.666 8.00016 12.666ZM11.3335 12.666C11.4654 12.666 11.5942 12.6269 11.7039 12.5537C11.8135 12.4804 11.899 12.3763 11.9494 12.2545C11.9999 12.1327 12.0131 11.9986 11.9874 11.8693C11.9616 11.74 11.8981 11.6212 11.8049 11.5279C11.7117 11.4347 11.5929 11.3712 11.4636 11.3455C11.3342 11.3198 11.2002 11.333 11.0784 11.3834C10.9566 11.4339 10.8524 11.5193 10.7792 11.629C10.7059 11.7386 10.6668 11.8675 10.6668 11.9993C10.6668 12.1762 10.7371 12.3457 10.8621 12.4708C10.9871 12.5958 11.1567 12.666 11.3335 12.666ZM11.3335 9.99935C11.4654 9.99935 11.5942 9.96025 11.7039 9.88699C11.8135 9.81374 11.899 9.70962 11.9494 9.5878C11.9999 9.46599 12.0131 9.33194 11.9874 9.20262C11.9616 9.0733 11.8981 8.95451 11.8049 8.86128C11.7117 8.76804 11.5929 8.70455 11.4636 8.67882C11.3342 8.6531 11.2002 8.6663 11.0784 8.71676C10.9566 8.76722 10.8524 8.85267 10.7792 8.9623C10.7059 9.07193 10.6668 9.20083 10.6668 9.33268C10.6668 9.50949 10.7371 9.67906 10.8621 9.80409C10.9871 9.92911 11.1567 9.99935 11.3335 9.99935ZM8.00016 9.99935C8.13202 9.99935 8.26091 9.96025 8.37054 9.88699C8.48018 9.81374 8.56562 9.70962 8.61608 9.5878C8.66654 9.46599 8.67974 9.33194 8.65402 9.20262C8.6283 9.0733 8.5648 8.95451 8.47157 8.86128C8.37833 8.76804 8.25954 8.70455 8.13022 8.67882C8.0009 8.6531 7.86686 8.6663 7.74504 8.71676C7.62322 8.76722 7.5191 8.85267 7.44585 8.9623C7.3726 9.07193 7.3335 9.20083 7.3335 9.33268C7.3335 9.50949 7.40373 9.67906 7.52876 9.80409C7.65378 9.92911 7.82335 9.99935 8.00016 9.99935ZM12.6668 1.99935H12.0002V1.33268C12.0002 1.15587 11.9299 0.986302 11.8049 0.861278C11.6799 0.736253 11.5103 0.666016 11.3335 0.666016C11.1567 0.666016 10.9871 0.736253 10.8621 0.861278C10.7371 0.986302 10.6668 1.15587 10.6668 1.33268V1.99935H5.3335V1.33268C5.3335 1.15587 5.26326 0.986302 5.13823 0.861278C5.01321 0.736253 4.84364 0.666016 4.66683 0.666016C4.49002 0.666016 4.32045 0.736253 4.19543 0.861278C4.0704 0.986302 4.00016 1.15587 4.00016 1.33268V1.99935H3.3335C2.80306 1.99935 2.29436 2.21006 1.91928 2.58514C1.54421 2.96021 1.3335 3.46892 1.3335 3.99935V13.3327C1.3335 13.8631 1.54421 14.3718 1.91928 14.7469C2.29436 15.122 2.80306 15.3327 3.3335 15.3327H12.6668C13.1973 15.3327 13.706 15.122 14.081 14.7469C14.4561 14.3718 14.6668 13.8631 14.6668 13.3327V3.99935C14.6668 3.46892 14.4561 2.96021 14.081 2.58514C13.706 2.21006 13.1973 1.99935 12.6668 1.99935ZM13.3335 13.3327C13.3335 13.5095 13.2633 13.6791 13.1382 13.8041C13.0132 13.9291 12.8436 13.9993 12.6668 13.9993H3.3335C3.15669 13.9993 2.98712 13.9291 2.86209 13.8041C2.73707 13.6791 2.66683 13.5095 2.66683 13.3327V7.33268H13.3335V13.3327ZM13.3335 5.99935H2.66683V3.99935C2.66683 3.82254 2.73707 3.65297 2.86209 3.52794C2.98712 3.40292 3.15669 3.33268 3.3335 3.33268H4.00016V3.99935C4.00016 4.17616 4.0704 4.34573 4.19543 4.47075C4.32045 4.59578 4.49002 4.66602 4.66683 4.66602C4.84364 4.66602 5.01321 4.59578 5.13823 4.47075C5.26326 4.34573 5.3335 4.17616 5.3335 3.99935V3.33268H10.6668V3.99935C10.6668 4.17616 10.7371 4.34573 10.8621 4.47075C10.9871 4.59578 11.1567 4.66602 11.3335 4.66602C11.5103 4.66602 11.6799 4.59578 11.8049 4.47075C11.9299 4.34573 12.0002 4.17616 12.0002 3.99935V3.33268H12.6668C12.8436 3.33268 13.0132 3.40292 13.1382 3.52794C13.2633 3.65297 13.3335 3.82254 13.3335 3.99935V5.99935ZM4.66683 9.99935C4.79868 9.99935 4.92758 9.96025 5.03721 9.88699C5.14684 9.81374 5.23229 9.70962 5.28275 9.5878C5.33321 9.46599 5.34641 9.33194 5.32069 9.20262C5.29496 9.0733 5.23147 8.95451 5.13823 8.86128C5.045 8.76804 4.92621 8.70455 4.79689 8.67882C4.66757 8.6531 4.53352 8.6663 4.41171 8.71676C4.28989 8.76722 4.18577 8.85267 4.11252 8.9623C4.03926 9.07193 4.00016 9.20083 4.00016 9.33268C4.00016 9.50949 4.0704 9.67906 4.19543 9.80409C4.32045 9.92911 4.49002 9.99935 4.66683 9.99935ZM4.66683 12.666C4.79868 12.666 4.92758 12.6269 5.03721 12.5537C5.14684 12.4804 5.23229 12.3763 5.28275 12.2545C5.33321 12.1327 5.34641 11.9986 5.32069 11.8693C5.29496 11.74 5.23147 11.6212 5.13823 11.5279C5.045 11.4347 4.92621 11.3712 4.79689 11.3455C4.66757 11.3198 4.53352 11.333 4.41171 11.3834C4.28989 11.4339 4.18577 11.5193 4.11252 11.629C4.03926 11.7386 4.00016 11.8675 4.00016 11.9993C4.00016 12.1762 4.0704 12.3457 4.19543 12.4708C4.32045 12.5958 4.49002 12.666 4.66683 12.666Z" fill="#1D1F20" stroke="#1D1F20" stroke-width="2" mask="url(#path-1-inside-1_1982_8389)"/>
</svg>
