<svg width="12" height="14" viewBox="0 0 12 14" fill="none" xmlns="http://www.w3.org/2000/svg">
<path d="M6.00037 0.830078C7.36791 0.830177 8.67984 1.37381 9.64685 2.34082C10.6093 3.30347 11.1498 4.60945 11.1498 5.9707C11.1497 7.33177 10.6091 8.63707 9.64685 9.59961L9.64587 9.60059L6.10583 13.1543L6.10486 13.1553C6.0895 13.1707 6.07122 13.183 6.05115 13.1914C6.03085 13.1999 6.00869 13.2041 5.98669 13.2041C5.96469 13.2041 5.94255 13.1999 5.92224 13.1914C5.90217 13.183 5.88389 13.1707 5.86853 13.1553L5.86755 13.1533L2.35388 9.63379L2.17712 9.44824C1.32063 8.50235 0.843232 7.26939 0.84314 5.9873C0.84314 4.61962 1.38678 3.30792 2.35388 2.34082C3.32098 1.37372 4.63268 0.830078 6.00037 0.830078ZM6.00037 1.14941C5.04992 1.14941 4.12078 1.43203 3.33044 1.95996C2.54009 2.48793 1.92387 3.23816 1.55994 4.11621C1.19604 4.99422 1.10042 5.96034 1.28552 6.89258C1.47057 7.82442 1.92771 8.68029 2.599 9.35254V9.35352L5.64587 12.4131L6.00037 12.7686L6.35388 12.4131L9.40076 9.35352C10.0724 8.68119 10.5291 7.82468 10.7142 6.89258C10.8993 5.96043 10.8046 4.99415 10.4408 4.11621C10.0769 3.23833 9.46044 2.48791 8.67029 1.95996C7.88003 1.43206 6.95072 1.14949 6.00037 1.14941ZM6.0365 3.61133C6.34839 3.61393 6.65674 3.67765 6.94373 3.7998C7.23084 3.92203 7.49122 4.1001 7.70935 4.32324L7.71521 4.3291C7.93642 4.54764 8.11208 4.80832 8.23083 5.0957C8.34947 5.38286 8.40895 5.69127 8.40662 6.00195C8.40169 6.4693 8.25924 6.92501 7.99646 7.31152C7.73363 7.6981 7.36196 7.99836 6.92908 8.1748C6.49626 8.35117 6.02096 8.39541 5.56287 8.30273C5.10473 8.21003 4.68314 7.98412 4.35291 7.65332C3.90872 7.20729 3.65955 6.60315 3.65955 5.97363C3.65955 5.34481 3.90769 4.74081 4.35095 4.29492L4.35193 4.2959C4.57363 4.07642 4.83638 3.90266 5.12537 3.78516C5.41444 3.66765 5.72446 3.60877 6.0365 3.61133ZM6.42029 3.95605C5.9535 3.86334 5.46857 3.93617 5.04919 4.16113C4.62994 4.38611 4.30138 4.74938 4.12048 5.18945C3.93955 5.62963 3.91707 6.11935 4.05701 6.57422C4.19695 7.02906 4.49103 7.42125 4.88806 7.68359C5.28495 7.9458 5.76068 8.06221 6.23376 8.0127C6.70705 7.96304 7.14884 7.75016 7.48279 7.41113L8.32068 6.56055H7.97595C8.03482 6.37594 8.06896 6.18255 8.07361 5.98535V5.97461C8.07462 5.49874 7.9103 5.03709 7.60876 4.66895C7.30724 4.30084 6.88699 4.0488 6.42029 3.95605Z" fill="#616161" stroke="#616161"/>
</svg>
