<svg width="16" height="10" viewBox="0 0 16 10" fill="none" xmlns="http://www.w3.org/2000/svg">
<path d="M4.00002 4.33301C3.86817 4.33301 3.73927 4.37211 3.62964 4.44536C3.52001 4.51862 3.43456 4.62273 3.3841 4.74455C3.33364 4.86637 3.32044 5.00041 3.34616 5.12973C3.37189 5.25906 3.43538 5.37784 3.52862 5.47108C3.62185 5.56431 3.74064 5.62781 3.86996 5.65353C3.99928 5.67926 4.13332 5.66605 4.25514 5.61559C4.37696 5.56514 4.48108 5.47969 4.55433 5.37006C4.62759 5.26042 4.66669 5.13153 4.66669 4.99967C4.66669 4.82286 4.59645 4.65329 4.47142 4.52827C4.3464 4.40325 4.17683 4.33301 4.00002 4.33301ZM12 4.33301C11.8682 4.33301 11.7393 4.37211 11.6296 4.44536C11.52 4.51862 11.4346 4.62273 11.3841 4.74455C11.3336 4.86637 11.3204 5.00041 11.3462 5.12973C11.3719 5.25906 11.4354 5.37784 11.5286 5.47108C11.6219 5.56431 11.7406 5.62781 11.87 5.65353C11.9993 5.67926 12.1333 5.66605 12.2551 5.61559C12.377 5.56514 12.4811 5.47969 12.5543 5.37006C12.6276 5.26042 12.6667 5.13153 12.6667 4.99967C12.6667 4.82286 12.5964 4.65329 12.4714 4.52827C12.3464 4.40325 12.1768 4.33301 12 4.33301ZM13.3334 0.333008H2.66669C2.13625 0.333008 1.62755 0.543722 1.25247 0.918794C0.877401 1.29387 0.666687 1.80257 0.666687 2.33301V7.66634C0.666687 8.19677 0.877401 8.70548 1.25247 9.08055C1.62755 9.45563 2.13625 9.66634 2.66669 9.66634H13.3334C13.8638 9.66634 14.3725 9.45563 14.7476 9.08055C15.1226 8.70548 15.3334 8.19677 15.3334 7.66634V2.33301C15.3334 1.80257 15.1226 1.29387 14.7476 0.918794C14.3725 0.543722 13.8638 0.333008 13.3334 0.333008ZM14 7.66634C14 7.84315 13.9298 8.01272 13.8048 8.13775C13.6797 8.26277 13.5102 8.33301 13.3334 8.33301H2.66669C2.48988 8.33301 2.32031 8.26277 2.19528 8.13775C2.07026 8.01272 2.00002 7.84315 2.00002 7.66634V2.33301C2.00002 2.1562 2.07026 1.98663 2.19528 1.8616C2.32031 1.73658 2.48988 1.66634 2.66669 1.66634H13.3334C13.5102 1.66634 13.6797 1.73658 13.8048 1.8616C13.9298 1.98663 14 2.1562 14 2.33301V7.66634ZM8.00002 2.99967C7.60446 2.99967 7.21778 3.11697 6.88888 3.33674C6.55998 3.5565 6.30364 3.86886 6.15226 4.23431C6.00089 4.59976 5.96128 5.00189 6.03845 5.38986C6.11562 5.77782 6.3061 6.13418 6.58581 6.41389C6.86551 6.69359 7.22188 6.88408 7.60984 6.96125C7.9978 7.03842 8.39993 6.99881 8.76539 6.84743C9.13084 6.69606 9.4432 6.43971 9.66296 6.11082C9.88272 5.78192 10 5.39524 10 4.99967C10 4.46924 9.78931 3.96053 9.41423 3.58546C9.03916 3.21039 8.53045 2.99967 8.00002 2.99967ZM8.00002 5.66634C7.86817 5.66634 7.73927 5.62724 7.62964 5.55399C7.52001 5.48073 7.43456 5.37661 7.3841 5.2548C7.33364 5.13298 7.32044 4.99894 7.34616 4.86961C7.37189 4.74029 7.43538 4.62151 7.52862 4.52827C7.62185 4.43504 7.74064 4.37154 7.86996 4.34582C7.99928 4.32009 8.13333 4.3333 8.25514 4.38375C8.37696 4.43421 8.48108 4.51966 8.55433 4.62929C8.62759 4.73893 8.66669 4.86782 8.66669 4.99967C8.66669 5.17649 8.59645 5.34605 8.47142 5.47108C8.3464 5.5961 8.17683 5.66634 8.00002 5.66634Z" fill="#616161"/>
</svg>
