<svg width="18" height="46" viewBox="0 0 18 46" fill="none" xmlns="http://www.w3.org/2000/svg">
<path fill-rule="evenodd" clip-rule="evenodd" d="M11.3673 13.4967C11.455 12.9209 11.5696 12.3477 11.625 11.7689C11.7063 10.9245 11.7368 10.0755 11.8031 9.22996C11.9015 7.9644 11.9895 6.69696 12.1262 5.43519C12.2325 4.45316 12.3783 3.47349 12.5597 2.50234C12.6522 2.01002 12.8248 1.52291 13.1884 1.13865C13.5222 0.786323 13.6822 0.750378 14.085 1.0216C14.6145 1.37795 14.9113 1.8925 15.0444 2.51227C15.1926 3.20369 15.3286 3.89132 15.3597 4.60402C15.3999 5.50991 15.5233 6.41155 15.5896 7.31673C15.6434 8.04125 15.626 8.77287 15.7109 9.49314C15.8528 10.6993 15.9251 11.9062 15.9066 13.1195C15.9025 13.3622 15.909 13.6059 15.928 13.8476C16.0091 14.8535 16.1023 15.858 16.1812 16.8639C16.2575 17.8483 16.3132 18.8346 16.4002 19.8183C16.4123 19.9569 16.5334 20.0978 16.6313 20.2146C17.3979 21.1295 17.6564 22.2224 17.4523 23.3383C17.3102 24.1132 16.9212 24.8703 16.5191 25.5651C15.9125 26.6147 15.1973 27.6027 14.5296 28.6178C14.0831 29.2969 13.6235 29.9848 13.4991 30.7994C13.2442 32.4686 13.3481 34.1456 13.5158 35.8158C13.5947 36.598 13.7462 37.3729 13.8513 38.1532C14.0539 39.6512 14.2638 41.1492 14.4317 42.6521C14.4754 43.0404 14.4973 43.5167 14.3135 43.8252C13.9868 44.3729 13.5212 44.8378 12.9135 45.1409C12.2644 45.4651 11.5903 45.6042 10.8722 45.6921C9.28817 45.8867 7.70365 45.812 6.11818 45.8274C6.03828 45.8286 5.95578 45.8096 5.87826 45.7877C4.78546 45.4758 3.67981 45.2015 2.60651 44.8352C1.61594 44.4975 1.68347 44.3183 1.73245 43.3764C1.73483 43.336 1.75028 43.2967 1.75884 43.2575C2.08768 41.737 2.42675 40.2185 2.74346 38.6956C3.09251 37.013 3.40851 35.3263 3.34289 33.5921C3.31792 32.9326 3.20878 32.3085 2.90586 31.7202C2.47121 30.8741 1.95525 30.0574 1.62807 29.1721C1.19461 27.9999 0.882411 26.7798 0.574257 25.5663C0.436349 25.0231 0.420419 24.4464 0.377382 23.8826C0.294875 22.797 0.208325 21.7105 0.167666 20.6225C0.128909 19.5726 0.107986 18.5194 0.155303 17.4707C0.177416 16.9812 0.166478 16.5118 0.0996635 16.0273C0.0154918 15.4095 -0.00543306 14.78 -0.00781079 14.1557C-0.00828634 13.9538 0.090627 13.7126 0.22378 13.5568C0.67222 13.0316 1.2764 12.7611 1.9367 12.5702C2.40725 12.4343 2.76249 12.6967 3.16432 12.8053C3.23946 12.8256 3.31174 12.8552 3.41042 12.8892C4.58121 11.8566 5.83689 11.9013 7.08829 12.6655C7.24165 12.5589 7.34509 12.4941 7.44043 12.4196C8.0225 11.9639 8.66425 11.805 9.38613 12.0171C9.75515 12.1259 10.1218 12.2463 10.4961 12.3333C10.9114 12.4295 11.0943 12.7237 11.2094 13.0855C11.2505 13.2146 11.2619 13.3529 11.2864 13.4872C11.3133 13.4901 11.3402 13.4934 11.3673 13.4967ZM8.55559 21.8552C7.67916 22.3877 7.04026 23.1342 6.36189 23.859C5.66926 24.5994 5.37062 25.5391 4.85132 26.3724C4.63566 25.6393 4.96569 25.0252 5.30618 24.4577C5.65618 23.8744 6.12602 23.3622 6.58088 22.7708C6.45843 22.7538 6.35405 22.7301 6.24895 22.7259C5.49117 22.6932 4.90506 22.3688 4.61593 21.662C4.47516 21.3182 4.26022 21.273 3.95254 21.2846C3.60682 21.2976 3.26038 21.2872 2.9149 21.2856C2.01825 21.2813 1.36153 20.8403 0.901673 20.117C0.773275 19.9157 0.74284 19.6147 0.763764 19.3676C0.796814 18.9675 0.71383 18.6116 0.511248 18.1754C0.511248 19.0481 0.47915 19.8332 0.518382 20.615C0.578301 21.7833 0.6658 22.9517 0.7854 24.1153C0.863627 24.8763 0.991312 25.6348 1.14824 26.3837C1.28449 27.0354 1.44332 27.6906 1.68086 28.3109C2.01279 29.1759 2.32688 30.0742 2.82716 30.8434C3.82557 32.3781 3.96395 34.0409 3.70145 35.7443C3.34431 38.0581 2.86187 40.3528 2.42366 42.6536C2.35565 43.0106 2.21775 43.3537 2.14427 43.7094C2.04917 44.17 2.12454 44.3398 2.52804 44.4611C3.59635 44.7817 4.67038 45.0828 5.74725 45.3727C5.97789 45.4346 6.23088 45.4351 6.4727 45.4304C7.69247 45.4041 8.91415 45.3994 10.1308 45.3239C10.9764 45.2717 11.8176 45.1691 12.593 44.738C13.1284 44.4396 13.5231 44.0206 13.8879 43.5621C13.9875 43.4363 14.0158 43.2178 14.0032 43.048C13.9452 42.2428 13.8753 41.4386 13.7835 40.6384C13.6551 39.5155 13.5022 38.3958 13.361 37.275C13.2426 36.3341 13.0714 35.396 13.0219 34.4516C12.9653 33.3622 12.9915 32.2662 13.0267 31.1747C13.0711 29.8337 13.8154 28.7796 14.5377 27.7216C15.0059 27.0359 15.4524 26.3357 15.9235 25.6521C16.4366 24.9079 16.7647 24.0803 17.0286 23.2295C17.1211 22.9313 17.0852 22.5941 17.1069 22.2747C17.1081 22.2555 17.0957 22.2361 17.0912 22.2165C16.7026 20.2688 16.7702 20.5159 15.0439 19.2808C13.7226 18.335 12.3048 17.5336 10.8318 16.8365C10.1277 16.5031 9.39897 16.2208 8.60671 16.2834C8.10572 16.3231 7.59831 16.426 7.1211 16.5828C6.4853 16.7913 5.8697 17.0663 5.2572 17.3373C4.21718 17.7975 3.1831 18.2714 2.1526 18.7526C1.91601 18.863 1.68442 19.0035 1.48445 19.1709C1.03292 19.5492 1.03744 19.933 1.44736 20.3671C1.74529 20.6823 2.13286 20.8384 2.53589 20.8538C3.79371 20.9018 5.0608 20.9734 6.28058 20.5556C6.60537 20.4447 6.919 20.2971 7.22572 20.1423C7.60426 19.9514 7.65443 19.9488 7.87033 20.2697C8.1062 20.6211 8.32114 20.9879 8.57247 21.3281C9.45532 22.5258 10.5148 23.4542 12.1029 23.5516C12.3519 23.5667 12.3512 23.5757 12.5381 23.9507C10.7707 24.0311 9.66742 22.9529 8.55559 21.8552ZM15.9201 19.4934C15.9261 19.2711 15.9518 19.0427 15.9351 18.8176C15.8146 17.2293 15.6719 15.6421 15.563 14.0531C15.5021 13.1671 15.5093 12.2768 15.4555 11.3905C15.3847 10.2226 15.2827 9.05663 15.1966 7.88944C15.1845 7.72818 15.1916 7.56525 15.1792 7.40422C15.1027 6.44016 15.043 5.47397 14.9367 4.51322C14.8549 3.77356 14.7325 3.03651 14.5874 2.30631C14.5342 2.03934 14.4053 1.76268 14.2365 1.54939C13.8995 1.12447 13.4197 1.19682 13.1827 1.6759C12.8441 2.36022 12.7409 3.10744 12.6741 3.84852C12.5366 5.37536 12.462 6.90765 12.3419 8.43591C12.2335 9.82182 12.1008 11.2058 11.9748 12.5901C11.9455 12.9117 11.911 13.2338 11.8578 13.552C11.7753 14.0474 11.7151 14.553 11.3868 14.9701C11.3378 15.0318 11.2871 15.1051 11.2752 15.1794C11.2011 15.6331 11.1385 16.089 11.0767 16.5111C12.6883 17.5033 14.2728 18.4792 15.9201 19.4934ZM2.99455 17.8145C3.46986 17.5863 3.46915 17.527 3.39591 17.011C3.32006 16.4742 3.26704 15.9318 3.24183 15.3903C3.21687 14.8452 3.24065 14.2976 3.23827 13.7511C3.23589 13.1569 2.79482 12.7805 2.21846 12.9282C1.84896 13.0228 1.47685 13.1633 1.15015 13.3567C0.639171 13.6589 0.356695 14.0718 0.378808 14.7438C0.422321 16.0916 0.809891 17.3574 1.07263 18.6979C1.77977 18.374 2.39227 18.1042 2.99455 17.8145ZM10.6344 16.3771C10.7169 15.8651 10.8206 15.4014 10.8596 14.9327C10.9022 14.4092 10.8924 13.8802 10.8924 13.3536C10.8931 12.8469 10.8047 12.7076 10.3158 12.5613C9.9487 12.4511 9.56779 12.365 9.18688 12.3248C8.24601 12.2259 7.36411 12.8672 7.20646 13.8039C7.09685 14.456 7.08306 15.1243 7.03336 15.7859C7.0279 15.8568 7.07402 15.9313 7.11468 16.0635C8.31211 15.6348 9.44629 15.8777 10.6344 16.3771ZM6.58897 16.2208C6.66791 15.1063 6.74423 14.029 6.82769 12.8556C6.16858 12.4657 5.4158 12.3494 4.61022 12.7041C4.57337 12.7204 4.54055 12.745 4.50536 12.7663C3.49815 13.3737 3.67411 13.181 3.68124 14.1666C3.68766 15.0725 3.74164 15.9781 3.78467 16.8833C3.79252 17.0368 3.85149 17.1879 3.89809 17.3891C4.86535 16.9692 5.75296 16.5835 6.58897 16.2208ZM4.92931 21.3373C4.89816 21.7495 5.09647 22.0349 5.47001 22.1612C5.74939 22.2553 6.06159 22.3137 6.35476 22.2976C6.83792 22.2711 7.03955 21.9529 6.95062 21.4693C6.91828 21.2948 6.8869 21.12 6.85527 20.9474C6.20615 21.0784 5.57938 21.2054 4.92931 21.3373ZM8.29404 21.4509C8.07553 21.1264 7.8796 20.8358 7.68914 20.553C7.17888 20.7887 7.17032 20.8528 7.48252 22.0335C7.77522 21.8235 8.01347 21.6526 8.29404 21.4509Z" fill="black"/>
</svg>
