<svg width="18" height="47" viewBox="0 0 18 47" fill="none" xmlns="http://www.w3.org/2000/svg">
<path fill-rule="evenodd" clip-rule="evenodd" d="M11.2939 17.0903C11.3215 16.9822 11.3597 16.8758 11.3757 16.7659C11.4555 16.2093 11.5419 15.6531 11.6025 15.0943C11.7438 13.7863 11.9377 12.4792 11.9897 11.1671C12.0613 9.38153 12.1806 7.6066 12.5238 5.85119C12.6394 5.2594 12.7777 4.66692 13.158 4.17433C13.5024 3.72691 13.7538 3.69195 14.2027 4.03654C14.6349 4.36841 14.917 4.80902 15.0099 5.3477C15.1316 6.05277 15.2741 6.75761 15.3403 7.46858C15.4777 8.93297 15.5884 10.4003 15.6748 11.8688C15.7561 13.2637 15.7913 14.6614 15.8473 16.0577C15.8492 16.0967 15.8508 16.1355 15.8549 16.1743C15.9519 17.1759 16.0615 18.1758 16.1421 19.1785C16.2161 20.1056 16.2494 21.036 16.325 21.9633C16.337 22.1138 16.453 22.2727 16.5587 22.3967C17.3192 23.2915 17.5712 24.35 17.3428 25.4494C17.1921 26.1747 16.8392 26.8829 16.4596 27.5324C15.8705 28.5391 15.2012 29.5023 14.5308 30.4598C13.7799 31.5335 13.3926 32.6908 13.4167 34.0088C13.4433 35.465 13.4548 36.9157 13.6919 38.3606C13.921 39.756 14.0952 41.16 14.2716 42.5633C14.3566 43.2355 14.4113 43.9129 14.4355 44.5891C14.4428 44.8011 14.3546 45.052 14.2273 45.2258C13.7179 45.9218 13.0406 46.416 12.1987 46.6491C11.8249 46.7524 11.4274 46.7724 11.0419 46.8339C9.51766 47.0773 7.98195 46.9713 6.4499 46.9878C6.35317 46.9883 6.25323 46.9701 6.15972 46.9436C5.0849 46.638 3.99675 46.3711 2.94215 46.0088C2.12466 45.7271 2.00703 45.538 2.17544 44.6247C2.44725 43.1567 2.82198 41.7084 3.12549 40.2459C3.46899 38.5919 3.80283 36.9364 3.72678 35.2305C3.69898 34.6194 3.6119 34.034 3.32102 33.4882C3.00993 32.9042 2.70136 32.3194 2.3898 31.7353C1.77887 30.5896 1.49787 29.3366 1.17874 28.096C0.862586 26.867 0.861438 25.6017 0.749086 24.3498C0.700606 23.8091 0.652816 23.2672 0.641098 22.7254C0.61996 21.7361 0.626624 20.7459 0.62042 19.7564C0.618123 19.3342 0.626625 18.9115 0.604798 18.4904C0.571943 17.8532 0.500481 17.2176 0.481181 16.58C0.476127 16.4038 0.557006 16.1909 0.669818 16.0515C1.03514 15.6005 1.53831 15.3435 2.07802 15.134C2.54007 14.9547 2.96007 15.0386 3.38881 15.2116C3.41546 15.2225 3.45934 15.1921 3.54297 15.1658C3.51425 14.8312 3.48645 14.4857 3.45406 14.1406C3.33964 12.9232 3.16961 11.7078 3.12228 10.4879C3.06415 8.99335 3.08024 7.49423 3.12228 5.99897C3.1402 5.36518 3.26933 4.72685 3.41385 4.10577C3.53332 3.59025 3.86555 3.35712 4.31887 3.33487C4.98058 3.30264 5.33487 3.48469 5.55521 4.0102C5.66021 4.25968 5.73856 4.5255 5.78704 4.79109C6.03036 6.12927 6.21049 7.47244 6.26816 8.83604C6.3125 9.8807 6.50344 10.9188 6.60108 11.9621C6.73434 13.3929 6.83659 14.8264 6.9648 16.2572C6.98547 16.4894 7.07209 16.716 7.12861 16.9448C7.18054 16.94 7.23246 16.9357 7.28416 16.9309C7.29864 16.7119 7.32391 16.4926 7.32575 16.2731C7.33333 15.437 7.3138 14.5999 7.34091 13.7643C7.38043 12.5419 7.48796 11.3213 7.50129 10.0991C7.52909 7.5528 7.50404 5.00629 7.68004 2.46318C7.74 1.58923 8.07592 0.884159 8.84837 0.425161C9.34121 0.132101 9.77155 0.224493 10.0622 0.69802C10.2118 0.942501 10.3241 1.22239 10.3921 1.50092C10.8404 3.32261 10.953 5.18244 10.9996 7.04795C11.032 8.3103 11.0492 9.57289 11.0787 10.8348C11.0957 11.5535 11.1336 12.2715 11.1446 12.9902C11.1561 13.7461 11.163 14.5027 11.1421 15.2582C11.1248 15.8665 11.0787 16.4731 11.1536 17.0774C11.2013 17.0817 11.2478 17.086 11.2939 17.0903ZM7.89211 22.6854C7.04452 23.2228 6.13605 23.3678 5.21977 23.4273C4.49694 23.4743 3.76239 23.4854 3.04347 23.4137C2.25195 23.3344 1.66744 22.8639 1.28557 22.1779C1.20723 22.0364 1.20148 21.8401 1.20723 21.6707C1.22859 21.056 1.23572 21.0562 0.970116 20.4134C0.970116 21.2472 0.934275 21.9915 0.978159 22.7311C1.04341 23.8318 1.15943 24.9298 1.2626 26.0278C1.31682 26.6067 1.3359 27.196 1.4664 27.7587C1.69432 28.7414 1.94867 29.7239 2.28251 30.6752C2.52491 31.3665 2.86541 32.0361 3.24727 32.6651C3.85062 33.6585 4.16907 34.6902 4.15344 35.8629C4.13782 37.0358 3.98848 38.184 3.76745 39.3272C3.47312 40.8511 3.15169 42.3692 2.83807 43.889C2.78729 44.1355 2.70343 44.3759 2.65978 44.6227C2.609 44.9049 2.58579 45.1911 2.55064 45.4749C2.66207 45.5398 2.7225 45.5934 2.79303 45.614C3.86395 45.9275 4.93463 46.2421 6.00945 46.542C6.21371 46.5987 6.43681 46.609 6.65094 46.6051C7.86822 46.5806 9.08847 46.5794 10.3034 46.502C11.1186 46.4505 11.9352 46.3565 12.6815 45.9332C13.195 45.6424 13.6184 45.2615 13.9137 44.7907C14.0775 44.5296 14.0644 44.1153 14.0258 43.7821C13.8117 41.935 13.5925 40.0872 13.3218 38.2478C13.1026 36.7646 13.0275 35.2802 13.0213 33.7842C13.0148 32.4325 13.4015 31.2332 14.1797 30.1295C14.8311 29.2058 15.4806 28.276 16.0523 27.3043C16.4344 26.6557 16.7395 25.9472 16.9709 25.2317C17.2992 24.2134 16.7094 22.7095 15.8338 22.0712C14.3107 20.9618 12.7044 19.9877 10.9989 19.1755C10.3016 18.8432 9.58107 18.5674 8.79529 18.6248C8.3298 18.6591 7.85351 18.7445 7.41581 18.8988C6.6769 19.159 5.95982 19.4829 5.2409 19.7968C4.37907 20.1734 3.52046 20.5589 2.66942 20.9591C2.38912 21.0912 2.11088 21.2521 1.87606 21.4508C1.53165 21.7416 1.53877 22.1318 1.83172 22.4805C2.11432 22.8178 2.50377 22.9921 2.91504 23.0087C4.09026 23.0559 5.27537 23.131 6.42118 22.7667C6.79225 22.6487 7.14883 22.482 7.50105 22.3147C7.84386 22.1518 7.90658 22.1554 8.11727 22.4723C8.36473 22.8439 8.58691 23.2346 8.86032 23.5864C9.71365 24.6824 10.7271 25.5291 12.2162 25.6085C12.3593 25.6163 12.4967 25.7302 12.6178 25.8635C12.1666 26.0719 11.7431 25.9731 11.3277 25.8271C10.572 25.5622 9.9349 25.1087 9.36854 24.5584C9.17348 24.3689 9.00805 24.1498 8.82448 23.9389C7.91118 24.4781 7.29726 25.2006 6.64244 25.8977C5.97384 26.6092 5.67331 27.5076 5.18507 28.3228C5.00931 27.9042 5.14877 27.5328 5.2818 27.1637C5.552 26.4173 6.0145 25.7892 6.57719 25.2406C7.17548 24.6576 7.80894 24.1094 8.46605 23.5106C8.30131 23.2725 8.10509 22.991 7.89211 22.6854ZM7.04934 18.549C8.16805 18.0516 9.27411 18.1034 10.3609 18.5633C12.1199 19.3074 13.7423 20.2967 15.3012 21.3897C15.4453 21.4909 15.5884 21.5938 15.7357 21.69C15.7628 21.7077 15.8085 21.6978 15.9232 21.7068C15.8834 21.1675 15.8492 20.6383 15.803 20.1099C15.7458 19.455 15.6541 18.8023 15.6212 18.1463C15.5503 16.7119 15.527 15.275 15.4453 13.841C15.3807 12.7212 15.2481 11.6057 15.1631 10.4873C15.1149 9.8487 15.1257 9.2056 15.0675 8.56818C14.9653 7.45133 14.9088 6.32472 14.6098 5.23624C14.5301 4.94636 14.387 4.6449 14.1887 4.4229C13.8748 4.07218 13.4454 4.15821 13.2481 4.57839C13.1247 4.84126 13.0034 5.11934 12.9606 5.40218C12.8177 6.34015 12.7003 7.28198 12.5937 8.2245C12.5245 8.83967 12.491 9.45825 12.4418 10.0757C12.4299 10.2303 12.4172 10.3849 12.4101 10.5397C12.3387 12.2422 12.3141 13.9484 11.9623 15.6279C11.8787 16.025 11.858 16.4343 11.7836 16.8338C11.753 17.0013 11.682 17.1727 11.5876 17.3157C11.464 17.5034 11.2714 17.6249 11.0329 17.5429C10.8027 17.4642 10.7404 17.2957 10.7421 17.0408C10.7535 15.1365 10.7565 13.2317 10.734 11.3276C10.7145 9.65688 10.7012 7.98456 10.6076 6.317C10.5153 4.67146 10.4236 3.02093 10.0303 1.40536C9.81957 0.54275 9.55994 0.452628 8.85251 1.01378C8.42561 1.35292 8.1862 1.78331 8.14002 2.30519C8.06673 3.1367 7.99803 3.97025 7.98195 4.80426C7.94381 6.76692 7.96172 8.73117 7.9121 10.6936C7.86706 12.459 7.76597 14.2228 7.67958 15.9871C7.6635 16.3155 7.57963 16.6408 7.55849 16.9695C7.54563 17.1713 7.50841 17.3205 7.2752 17.3243C7.06405 17.328 6.86898 17.2626 6.81843 17.0367C6.73296 16.659 6.65002 16.2781 6.6089 15.8938C6.44737 14.3876 6.29734 12.8803 6.15328 11.3726C6.02553 10.0398 5.9357 8.70302 5.78291 7.37301C5.66734 6.37125 5.50076 5.37335 5.31327 4.38203C5.20207 3.79296 5.12763 3.76141 4.71728 3.74484C4.24305 3.72577 3.94414 3.88218 3.82926 4.33732C3.68795 4.89937 3.55997 5.48027 3.54665 6.05572C3.50966 7.70625 3.50437 9.35905 3.54435 11.0098C3.56755 11.9389 3.72035 12.8646 3.7856 13.7938C3.88072 15.1494 3.96734 16.506 4.02157 17.8635C4.04523 18.465 4.09531 19.0536 4.25867 19.6502C5.23309 19.2693 6.15741 18.9454 7.04934 18.549ZM3.40121 20.0876C3.80743 19.8938 3.86463 19.8225 3.78307 19.415C3.60317 18.5118 3.64683 17.602 3.64108 16.6924C3.64016 16.5176 3.62155 16.3423 3.63442 16.1691C3.67991 15.5535 3.19581 15.3256 2.54696 15.4402C2.26367 15.4904 1.97807 15.6032 1.72717 15.7455C1.17736 16.0577 0.82192 16.4451 0.86006 17.1806C0.926461 18.4689 1.2796 19.6858 1.53624 20.9441C2.19841 20.6408 2.80429 20.3727 3.40121 20.0876Z" fill="black"/>
</svg>
