<svg width="18" height="48" viewBox="0 0 18 48" fill="none" xmlns="http://www.w3.org/2000/svg">
<path fill-rule="evenodd" clip-rule="evenodd" d="M11.1128 17.2952C11.1503 17.1821 11.2075 17.0715 11.2224 16.9555C11.2859 16.4688 11.293 15.9707 11.402 15.4953C11.716 14.127 11.6797 12.7266 11.824 11.3434C11.9705 9.94134 12.0174 8.52872 12.1744 7.12829C12.2594 6.37198 12.4532 5.62234 12.6604 4.88695C12.7459 4.58098 12.979 4.30995 13.1718 4.04214C13.3323 3.81984 13.5429 3.8118 13.7971 3.938C14.3748 4.22489 14.6872 4.72879 14.8405 5.30234C15.1447 6.44094 15.2187 7.62069 15.3272 8.79056C15.387 9.4356 15.3658 10.0878 15.4139 10.7342C15.4971 11.867 15.6637 12.9969 15.6886 14.1305C15.7272 15.8598 15.7612 17.5851 15.9628 19.3064C16.0764 20.2782 16.0966 21.2607 16.1817 22.2363C16.1948 22.3896 16.307 22.5514 16.4113 22.6779C17.1472 23.5703 17.3984 24.6316 17.1987 25.7162C17.0596 26.4691 16.6837 27.2047 16.2952 27.8796C15.7083 28.8998 15.0173 29.86 14.3714 30.8469C13.9396 31.5069 13.4987 32.1759 13.3769 32.9676C13.1302 34.5703 13.2348 36.1815 13.3815 37.7861C13.4532 38.5661 13.6137 39.3376 13.718 40.1152C13.9114 41.5525 14.1104 42.9885 14.2686 44.4294C14.3125 44.8267 14.3449 45.3103 14.1631 45.6278C13.8567 46.163 13.3994 46.6124 12.8118 46.9068C12.1838 47.222 11.5326 47.3572 10.8388 47.4425C9.30754 47.6319 7.77539 47.5593 6.243 47.574C6.16553 47.5753 6.08599 47.5579 6.01105 47.536C4.93682 47.2255 3.85454 46.9404 2.79226 46.5928C2.02975 46.3432 1.91619 46.105 1.98929 45.3106C1.99688 45.2329 2.01067 45.1547 2.02745 45.0779C2.34469 43.6002 2.67158 42.1235 2.9787 40.6435C3.32283 38.9888 3.62558 37.3298 3.55777 35.6243C3.53409 35.0239 3.43593 34.4515 3.16352 33.917C2.89571 33.3922 2.61457 32.874 2.33411 32.3552C1.59527 30.9888 1.24884 29.4918 0.913678 27.9969C0.776899 27.3879 0.744024 26.7532 0.692531 26.1279C0.607015 25.0926 0.51851 24.0569 0.481269 23.0193C0.444488 21.999 0.473915 20.9763 0.467708 19.9549C0.46472 19.5262 0.452536 19.0973 0.429548 18.6688C0.395986 18.0428 0.328629 17.418 0.319894 16.7918C0.316905 16.5955 0.410466 16.3594 0.53782 16.2077C0.969766 15.695 1.55389 15.433 2.19112 15.2447C2.64675 15.1102 2.9895 15.3631 3.378 15.4672C3.45133 15.4865 3.52121 15.5182 3.62052 15.5546C4.69636 14.5976 5.87358 14.578 7.07586 15.2691C7.12827 15.1835 7.16367 15.1525 7.16482 15.1201C7.22482 13.7449 7.3039 12.3703 7.33333 10.9942C7.37884 8.86917 7.38229 6.74347 7.41976 4.61845C7.4331 3.87203 7.49355 3.12675 7.5347 2.38056C7.57792 1.58425 7.90918 0.946106 8.57445 0.489563C9.13536 0.103823 9.62846 0.197382 9.95627 0.787026C10.0884 1.02426 10.1859 1.29001 10.2489 1.55506C10.6845 3.38077 10.7783 5.24717 10.8503 7.11151C10.9018 8.42895 10.8866 9.74916 10.9068 11.0678C10.9293 12.542 10.9645 14.0157 10.9808 15.49C10.9877 16.0858 10.9445 16.6831 10.9896 17.2768C11.0303 17.2837 11.0716 17.2895 11.1128 17.2952ZM6.45541 26.244C5.7991 26.9594 5.50531 27.8539 5.04187 28.7727C4.80992 28.2826 4.97038 27.9178 5.08923 27.5654C5.35267 26.7863 5.84554 26.15 6.39679 25.5539C6.49886 25.4431 6.59012 25.322 6.73449 25.1473C6.57127 25.1316 6.48231 25.1185 6.39334 25.1155C5.66416 25.0893 5.08992 24.7905 4.79889 24.1047C4.66602 23.7916 4.48901 23.6942 4.17316 23.7126C3.81983 23.7333 3.46489 23.7218 3.11065 23.7151C2.24492 23.6988 1.61573 23.2599 1.18149 22.5503C1.06149 22.3533 1.04862 22.0604 1.06609 21.817C1.09252 21.4308 1.01666 21.088 0.8277 20.7283C0.8277 21.5436 0.797126 22.3223 0.835056 23.0976C0.889308 24.2139 0.981031 25.3296 1.08333 26.4426C1.14126 27.0661 1.21781 27.692 1.34884 28.3033C1.50861 29.0516 1.72469 29.789 1.9355 30.5258C2.21825 31.5152 2.69387 32.4193 3.21042 33.303C3.60121 33.9708 3.92741 34.6744 3.96305 35.4514C4.00856 36.4512 4.02534 37.4544 3.82948 38.4495C3.43478 40.4527 3.06352 42.461 2.67341 44.4653C2.60238 44.8313 2.4656 45.1839 2.39411 45.5492C2.3125 45.9662 2.38721 46.1289 2.74789 46.2374C3.77983 46.5501 4.81889 46.84 5.85864 47.1273C6.04531 47.1781 6.2476 47.1919 6.44162 47.1887C7.67999 47.1634 8.92019 47.1634 10.1551 47.0825C10.9505 47.0303 11.7459 46.9381 12.4801 46.5266C12.9974 46.2361 13.3842 45.8361 13.7396 45.3922C13.8373 45.2699 13.876 45.0609 13.8649 44.897C13.8123 44.1149 13.7571 43.3315 13.6594 42.5536C13.4505 40.8794 13.1643 39.213 13.0066 37.5346C12.8872 36.2657 12.8953 34.9827 12.8877 33.7062C12.8801 32.5239 13.3479 31.4938 14.0029 30.5306C14.6661 29.5555 15.3467 28.5877 15.9378 27.5688C16.3187 26.9123 16.7152 26.1916 16.8129 25.4606C16.9635 24.3247 16.8095 23.1726 15.7564 22.3993C14.2001 21.2551 12.5666 20.2365 10.8211 19.4028C10.122 19.0692 9.40041 18.7904 8.61376 18.8529C8.14848 18.8901 7.67286 18.9789 7.23471 19.1356C6.49587 19.4002 5.77841 19.7283 5.05935 20.0462C4.19683 20.4273 3.33685 20.8152 2.48652 21.2234C2.18974 21.3664 1.90009 21.5501 1.65458 21.7685C1.36562 22.0252 1.36884 22.356 1.59344 22.6708C1.87803 23.0687 2.2971 23.2765 2.75364 23.294C3.94902 23.3399 5.15498 23.4192 6.31817 23.0287C6.65127 22.917 6.97678 22.7747 7.28942 22.6154C7.70045 22.4066 7.70205 22.3977 7.9763 22.8126C8.21354 23.1721 8.43514 23.5448 8.6995 23.8841C9.55903 24.987 10.5687 25.8548 12.062 25.9199C12.2431 25.9279 12.2431 25.9403 12.4502 26.2629C11.9978 26.3868 11.5884 26.2971 11.1866 26.1555C10.411 25.881 9.76317 25.4059 9.17605 24.8401C8.98042 24.6509 8.78985 24.4565 8.59422 24.2618C7.73585 24.8089 7.10896 25.5318 6.45541 26.244ZM8.03262 2.05666C7.92113 2.57159 7.88067 3.10859 7.87033 3.63686C7.82366 5.93888 7.81378 8.2416 7.76182 10.5432C7.73424 11.7604 7.64803 12.9762 7.58574 14.1925C7.54482 14.9966 7.51999 15.8026 7.44597 16.604C7.4085 17.0106 7.26873 17.4065 7.19333 17.8108C7.14758 18.0536 7.13655 18.3028 7.1062 18.5911C7.27585 18.5805 7.37287 18.5922 7.45815 18.5662C8.41055 18.2791 9.33605 18.4175 10.219 18.8014C11.993 19.572 13.6373 20.5738 15.2047 21.7046C15.3444 21.8053 15.4916 21.8965 15.7178 22.0471C15.7178 21.7082 15.7339 21.445 15.715 21.1843C15.6734 20.6175 15.615 20.0522 15.5621 19.486C15.5132 18.9591 15.4621 18.4324 15.4102 17.9058C15.4026 17.8281 15.3789 17.7508 15.3755 17.6729C15.3396 16.9083 15.3125 16.1433 15.272 15.3789C15.1879 13.7916 15.0962 12.2041 15.009 10.6167C14.9727 9.95122 14.9617 9.28319 14.8982 8.61998C14.7884 7.46989 14.7261 6.31129 14.4272 5.18786C14.3769 5.00051 14.2886 4.8196 14.1923 4.65017C14.0452 4.39018 13.8102 4.26972 13.5077 4.26466C13.1895 4.25938 13.1334 4.51891 13.0406 4.72305C12.6838 5.50579 12.5997 6.35612 12.5256 7.19242C12.3994 8.61814 12.3656 10.0521 12.2562 11.4795C12.1542 12.8073 12.0155 14.1328 11.8689 15.4566C11.8043 16.0389 11.6958 16.6187 11.5716 17.1915C11.533 17.3676 11.4077 17.5621 11.2634 17.666C11.1477 17.7488 10.9264 17.7564 10.7827 17.7069C10.6215 17.6508 10.5723 17.4936 10.5723 17.2791C10.573 15.1576 10.551 13.0355 10.5245 10.914C10.5082 9.59606 10.4857 8.27792 10.4436 6.9607C10.3852 5.13246 10.3107 3.30422 9.87443 1.51529C9.80225 1.2192 9.68202 0.934841 9.58983 0.660823C8.77812 0.76243 8.20503 1.26035 8.03262 2.05666ZM3.18375 20.3611C3.68374 20.1221 3.6796 20.0772 3.60466 19.5455C3.53018 19.0237 3.48397 18.4959 3.46076 17.9692C3.43708 17.4389 3.4596 16.9067 3.45685 16.3757C3.45432 15.8288 3.04283 15.453 2.51296 15.5822C2.11802 15.6785 1.7263 15.8428 1.3762 16.05C0.893676 16.3359 0.654832 16.7536 0.696211 17.3727C0.761497 18.3453 1.12701 20.4821 1.43735 21.1646C2.04377 20.8869 2.61732 20.6319 3.18375 20.3611ZM6.6961 18.7908C6.77219 17.7212 6.84851 16.6562 6.93057 15.5159C6.2253 15.1332 5.46164 14.998 4.66096 15.4474C4.59223 15.4858 4.52947 15.5357 4.45798 15.5658C4.0019 15.7578 3.83569 16.0847 3.87017 16.586C3.93546 17.5233 3.94351 18.4642 3.98327 19.4032C3.98948 19.557 4.03752 19.709 4.07913 19.9338C5.0067 19.5285 5.86393 19.154 6.6961 18.7908ZM5.09383 23.7682C5.20647 24.5576 6.19243 25.0027 6.82713 24.5746C7.04942 24.425 7.1354 24.2349 7.07241 23.973C7.02736 23.7854 6.99379 23.5956 6.95058 23.3878C6.30369 23.5206 5.69772 23.6445 5.09383 23.7682ZM7.77286 23.0165C7.26367 23.214 7.26367 23.214 7.53953 24.4245C7.81033 24.2464 8.05331 24.0864 8.35653 23.8875C8.12733 23.5455 7.94642 23.2763 7.77286 23.0165Z" fill="black"/>
</svg>
