<svg width="24" height="24" viewBox="0 0 24 24" fill="none" xmlns="http://www.w3.org/2000/svg">
<path d="M10.7467 2.48242C12.9197 2.42298 15.033 3.19864 16.6519 4.64941C18.2707 6.10011 19.2725 8.11587 19.4508 10.2822C19.629 12.4488 18.97 14.602 17.61 16.2979L17.3287 16.6484L17.648 16.9658L21.3492 20.6377H21.3502C21.4403 20.7309 21.4908 20.8557 21.4908 20.9854C21.4908 21.114 21.4409 21.2371 21.3521 21.3301C21.3061 21.3758 21.2519 21.4125 21.192 21.4375C21.1311 21.4628 21.0655 21.4766 20.9996 21.4766C20.9337 21.4765 20.868 21.4628 20.8072 21.4375C20.7465 21.4121 20.6915 21.3749 20.6451 21.3281L20.6432 21.3271L16.9635 17.6465L16.6471 17.3301L16.2975 17.6104C14.6016 18.9704 12.4484 19.6294 10.2818 19.4512C8.11547 19.2729 6.09971 18.2711 4.64902 16.6523C3.19824 15.0334 2.42259 12.9201 2.48203 10.7471C2.54149 8.57401 3.43119 6.50591 4.96835 4.96875C6.50551 3.43159 8.57362 2.54188 10.7467 2.48242ZM13.8697 4.07129C12.4994 3.50375 10.9914 3.35517 9.53671 3.64453C8.0819 3.93393 6.74574 4.6484 5.69687 5.69727C4.648 6.74613 3.93354 8.08229 3.64413 9.53711C3.35477 10.9918 3.50335 12.4998 4.07089 13.8701C4.63855 15.2406 5.60022 16.4122 6.83359 17.2363C8.0668 18.0603 9.51647 18.4999 10.9996 18.5C12.9887 18.5 14.8968 17.7102 16.3033 16.3037C17.7098 14.8972 18.4996 12.9891 18.4996 11C18.4995 9.51686 18.0599 8.0672 17.2359 6.83398C16.4118 5.60062 15.2402 4.63895 13.8697 4.07129Z" stroke="#01959F"/>
</svg>
